<?xml version="1.0" encoding="UTF-8" standalone="no"?>
<svg
   xmlns:dc="http://purl.org/dc/elements/1.1/"
   xmlns:cc="http://creativecommons.org/ns#"
   xmlns:rdf="http://www.w3.org/1999/02/22-rdf-syntax-ns#"
   xmlns:svg="http://www.w3.org/2000/svg"
   xmlns="http://www.w3.org/2000/svg"
   xmlns:sodipodi="http://sodipodi.sourceforge.net/DTD/sodipodi-0.dtd"
   xmlns:inkscape="http://www.inkscape.org/namespaces/inkscape"
   version="1.0"
   width="238.000000pt"
   height="147.000000pt"
   viewBox="0 0 238.000000 147.000000"
   preserveAspectRatio="xMidYMid meet"
   id="svg3702"
   sodipodi:docname="logo1.svg"
   inkscape:version="0.92.1 r15371">
  <defs
     id="defs3706" />
  <sodipodi:namedview
     pagecolor="#ffffff"
     bordercolor="#666666"
     borderopacity="1"
     objecttolerance="10"
     gridtolerance="10"
     guidetolerance="10"
     inkscape:pageopacity="0"
     inkscape:pageshadow="2"
     inkscape:window-width="1920"
     inkscape:window-height="1058"
     id="namedview3704"
     showgrid="false"
     inkscape:zoom="4.4744898"
     inkscape:cx="83.127331"
     inkscape:cy="71.1813"
     inkscape:window-x="-8"
     inkscape:window-y="-8"
     inkscape:window-maximized="1"
     inkscape:current-layer="svg3702" />
  <metadata
     id="metadata3680">
<rdf:RDF>
  <cc:Work
     rdf:about="">
    <dc:format>image/svg+xml</dc:format>
    <dc:type
       rdf:resource="http://purl.org/dc/dcmitype/StillImage" />
  </cc:Work>
</rdf:RDF>
</metadata>
  <path
     style="fill:#333333;stroke:none;stroke-width:0.1"
     inkscape:connector-curvature="0"
     id="path3686"
     d="m 121.8,21.2 c -1.5,1.1 -0.9,1.8 4.2,5.8 3.3,2.5 5.9,4.7 6,5 0,0.3 -2.5,2.5 -5.6,4.9 -5.5,4.3 -5.7,4.4 -8.3,2.8 -1.7,-1 -3.2,-1.3 -4.1,-0.7 -1.2,0.7 -1,1.3 0.9,3.4 1.3,1.3 2,2.9 1.7,3.5 -0.4,0.7 -0.1,0.8 0.9,0.5 1.1,-0.5 1.7,0.2 2.1,2.4 0.4,2.2 1.1,2.9 2.1,2.5 1.1,-0.4 1.4,-1.5 1,-4.2 -0.6,-3.6 -0.6,-3.6 5.6,-6.4 3.4,-1.5 6.7,-2.7 7.2,-2.7 0.6,0 1.8,3.6 2.8,8 1,4.4 2.2,8 2.6,8 2.1,0 3,-3.3 3.2,-12.3 l 0.3,-9.8 4.8,-3.4 c 8.1,-5.9 5.7,-8.7 -3.3,-3.9 l -4.9,2.7 -7.9,-3.7 c -9,-4.1 -9.1,-4.1 -11.3,-2.4 z" />
  <g
     id="g3725"
     style="fill:#1c3e98;fill-opacity:1">
    <path
       d="m 62.8,21.1 c -0.4,0.8 -6.7,15.3 -14.2,32.4 -7.5,17 -13.5,31.2 -13.4,31.6 0.2,0.4 5.7,-2 12.2,-5.4 l 12,-6.2 2,-5.4 2,-5.5 1.4,3.5 c 0.8,1.9 1.5,3.5 1.7,3.7 0.1,0.2 3.7,-1.4 7.9,-3.5 6.5,-3.2 7.5,-4 7,-5.7 -0.8,-2.3 -12.2,-28.5 -15.7,-36 -1.5,-3.2 -2.6,-4.4 -2.9,-3.5 z"
       id="path3682"
       inkscape:connector-curvature="0"
       style="fill:#1c3e98;stroke:none;stroke-width:0.1;fill-opacity:1" />
    <path
       d="M 97.2,31.2 C 94.4,37.3 92,43.1 92,44 c 0,2.5 3.9,11 5.1,11 2.4,0 17,-8.2 16.6,-9.3 -0.3,-0.7 -2.6,-6.4 -5.2,-12.7 -2.6,-6.3 -5.1,-11.8 -5.4,-12.2 -0.4,-0.4 -3,4.3 -5.9,10.4 z"
       id="path3684"
       inkscape:connector-curvature="0"
       style="fill:#1c3e98;stroke:none;stroke-width:0.1;fill-opacity:1" />
    <path
       d="m 155.2,27.2 0.3,7.3 10.3,4.2 10.2,4.2 V 31.4 20 h -10.5 -10.6 z"
       id="path3688"
       inkscape:connector-curvature="0"
       style="fill:#1c3e98;stroke:none;stroke-width:0.1;fill-opacity:1" />
    <path
       d="m 191,27.4 v 7.3 l 5.3,2.1 c 2.8,1.1 7.6,2.9 10.5,4.1 L 212,43 V 31.5 20 H 201.5 191 Z"
       id="path3690"
       inkscape:connector-curvature="0"
       style="fill:#1c3e98;stroke:none;stroke-width:0.1;fill-opacity:1" />
    <path
       d="M 155.7,44.7 C 155.3,45 155,64.8 155,88.7 V 132 H 165.5 176 V 88 44 h -9.8 c -5.4,0 -10.2,0.3 -10.5,0.7 z"
       id="path3692"
       inkscape:connector-curvature="0"
       style="fill:#1c3e98;stroke:none;stroke-width:0.1;fill-opacity:1" />
    <path
       d="m 191,88 v 44 H 201.5 212 V 88 44 H 201.5 191 Z"
       id="path3694"
       inkscape:connector-curvature="0"
       style="fill:#1c3e98;stroke:none;stroke-width:0.1;fill-opacity:1" />
    <path
       d="m 106.5,53.4 c -4.3,2.4 -8.1,4.8 -8.3,5.4 -0.3,0.9 6.7,18 25.5,62.5 l 4.6,10.7 h 10.3 c 5.7,0 10.4,-0.2 10.4,-0.5 0,-0.5 -5.8,-14.8 -18.2,-44.5 -13.9,-33.6 -15.1,-36.5 -15.7,-37.2 -0.4,-0.4 -4.2,1.2 -8.6,3.6 z"
       id="path3696"
       inkscape:connector-curvature="0"
       style="fill:#1c3e98;stroke:none;stroke-width:0.1;fill-opacity:1" />
    <path
       d="m 79.5,67.7 c -1.6,0.8 -4.9,2.6 -7.2,3.9 l -4.2,2.4 5,11.9 c 2.7,6.6 4.9,12.5 4.9,13 0,0.7 -5,1.1 -14.5,1.1 -8,0 -14.5,-0.4 -14.5,-0.8 0,-0.4 1.6,-4.6 3.4,-9.2 1.9,-4.6 3.3,-8.6 3.1,-8.8 -0.2,-0.2 -5.8,2.4 -12.4,5.9 -8.3,4.4 -12.3,7.1 -13.2,8.9 -0.6,1.4 -4.4,10 -8.5,19.3 L 14.1,132 h 10.7 10.7 l 3.9,-10 3.9,-10 h 20.2 20.3 l 3.9,9.7 3.9,9.8 10.6,0.3 10.7,0.3 -5.9,-13.3 C 103.8,111.5 97.4,96.7 92.7,86 88,75.3 83.8,66.4 83.3,66.3 c -0.4,-0.1 -2.1,0.5 -3.8,1.4 z"
       id="path3698"
       inkscape:connector-curvature="0"
       style="fill:#1c3e98;stroke:none;stroke-width:0.1;fill-opacity:1" />
  </g>
</svg>
